<?xml version="1.0" encoding="utf-8"?>
<!-- Generator: Adobe Illustrator 23.0.5, SVG Export Plug-In . SVG Version: 6.00 Build 0)  -->
<svg version="1.1" xmlns="http://www.w3.org/2000/svg" xmlns:xlink="http://www.w3.org/1999/xlink" x="0px" y="0px"
	 viewBox="0 0 512 512" style="enable-background:new 0 0 512 512;" xml:space="preserve">
<style type="text/css">
	.st0{display:none;}
	.st1{fill:none;stroke:#000000;stroke-width:17;stroke-miterlimit:10;}
	.st2{fill:#FFFFFF;}
</style>
<g id="Layer_1">
</g>
<g id="Layer_9">
	<g>
		<path d="M208.3,362.5H29.7c-4.3,0-8-2.4-9.8-6.2c-1.8-3.8-1.2-8.2,1.5-11.5l0,0l89.3-107.9c2.1-2.5,5.1-3.9,8.4-3.9
			c3.3,0,6.3,1.4,8.4,3.9l89.3,107.9c2.7,3.3,3.3,7.7,1.5,11.5C216.3,360.1,212.6,362.5,208.3,362.5z M40.6,346.5h156.7L119,251.8
			L40.6,346.5z"/>
	</g>
	<g>
		<rect x="180.5" y="361.5" width="16" height="53.4"/>
	</g>
</g>
<g id="Layer_10">
	<g>
		<path d="M163.1,469.4h-16v-31.2c-0.2-9.2,6.2-27.1,31.3-30.2c19.2-2.4,37.4-5.1,44.3-6.2c0.1,0,0.2-0.1,0.3-0.2l31.6-38.1
			c3.1-3.8,7.8-5.9,12.7-5.9H339c5.5,0,10.6,2.7,13.6,7.2l25.8,38.1c0,0,0.1,0,0.1,0l38.1,0.1l0,16l-38.5-0.1
			c-5.4-0.2-10-2.7-12.9-7l-25.8-38.1c-0.1-0.1-0.2-0.2-0.4-0.2h-71.8c-0.1,0-0.3,0.1-0.4,0.2l-31.6,38.1c-2.6,3.1-6.2,5.1-10.1,5.7
			c-7,1.1-25.3,3.9-44.8,6.3c-16.1,2-17.2,11.9-17.3,14.1l0,0.2l0,0V469.4z"/>
	</g>
</g>
<g id="Layer_4">
	<g>
		<path d="M408,229.3c0,0-0.1-0.1-0.2-0.1c-14.8-6-25.2-2.4-35.4-6.8c-8.5-4-9.3-7.9-9.4-9.7c0-3,1.9-6.6,9.3-9.9
			c3.7-1.7,8.1-2.5,12.9-2.8c0.7,0.2,1.4,0.2,2,0.2s1.2-0.1,1.8-0.2c9.9,0.5,18.4,2.5,26.1,6.1c4.1,1.9,8.9,0.2,11-3.8
			c1.9-4.1,0.2-8.9-3.9-10.8c-8.2-3.8-17-6.2-26.7-7.3v-4.8c0-4.4-3.6-8.2-8.2-8.2c-4.5,0-8.2,3.6-8.2,8.2v4.8
			c-18.3,2.4-31.9,12.9-32.5,27.9c-0.2,7.3,3.7,18,19,25c12.9,6,25.3,2.5,35.8,7.1c8.1,3.6,9.2,7.7,9.3,9.7
			c-0.4,2.9-1.9,6.6-9.3,9.7c-13.1,5.6-31.3,2-43.7-3.5c-4.1-1.8-8.9,0-10.8,4.1c-1.9,4.1,0,8.9,4.1,10.8c8.9,4.1,18.4,6.5,28.2,7.4
			v5.3c0,4.4,3.6,8.2,8.2,8.2c4.5,0,8.2-3.6,8.2-8.2v-5.5c17.9-2.8,30.7-13.1,31.5-27.6c0-0.4,0-0.7,0-1.1
			C426.6,246.1,422.9,236,408,229.3z"/>
	</g>
</g>
<g id="Layer_5">
	<g>
		<path d="M135.3,107.1H77c-3.8,0-7.1-2.3-8.5-5.7c-1.4-3.5-0.6-7.4,2.1-10L145,19.9c2.6-2.5,6.5-3.3,9.9-1.8
			c3.4,1.4,5.6,4.7,5.6,8.4v55.4C160.5,95.8,149.2,107.1,135.3,107.1z M89,93.1h46.2c6.2,0,11.2-5,11.2-11.2v-44L89,93.1z"/>
	</g>
</g>
<g id="Layer_6">
	<g>
		<path d="M128.4,211.8H243c4.5,0,8.2-3.6,8.2-8.2c0-4.4-3.6-8.2-8.2-8.2H128.4c-4.5,0-8.2,3.6-8.2,8.2S123.9,211.8,128.4,211.8z"/>
	</g>
</g>
<g id="Layer_7">
	<g>
		<path d="M244.8,262.3h-52.7c-4.5,0-8.2,3.6-8.2,8.2c0,4.4,3.6,8.2,8.2,8.2h52.6c4.5,0,8.2-3.6,8.2-8.2
			C253,266,249.3,262.3,244.8,262.3z"/>
	</g>
</g>
<g id="Layer_8">
	<g>
		<path d="M128.4,144.9h148.1c4.5,0,8.2-3.6,8.2-8.2c0-4.4-3.6-8.2-8.2-8.2H128.4c-4.3,0.1-7.9,3.6-7.9,7.9
			C120.3,141.1,123.9,144.9,128.4,144.9z"/>
	</g>
</g>
<g id="Layer_3">
	<g>
		<path d="M388.1,340.5c-61.1,0-110.8-48.4-110.8-108c0-59.5,49.7-108,110.8-108s110.8,48.4,110.8,108
			C498.9,292.1,449.2,340.5,388.1,340.5z M388.1,140.5c-52.3,0-94.8,41.3-94.8,92c0,50.7,42.5,92,94.8,92s94.8-41.3,94.8-92
			C482.9,181.8,440.4,140.5,388.1,140.5z"/>
	</g>
</g>
<g id="stroke" class="st0">
</g>
<g id="Layer_16">
	<g>
		<path d="M416.4,478.7H56.3c-9,0-16.3-7.4-16.3-16.5V363l-17.3,0c-3.4,0-6.5-2-7.9-5c-1.4-3.1-1-6.7,1.2-9.3l47.4-57.8v-48.7h16
			v54.4L38,347l18,0v115.1c0,0.3,0.2,0.5,0.3,0.5h360.1c0.1,0,0.3-0.1,0.3-0.5l0.1-36.9c0-1.6-0.6-3.1-1.7-4.2c-1-1-2.4-1.6-3.8-1.6
			h-34.4v-92.4l7.7-0.3c0.2,0,23.2-1,46.5-12.3c30.3-14.7,47.2-39.3,50.3-73.1l15.9,1.4c-4.5,49.9-35,74.5-59.8,86.4
			c-17.8,8.5-35.1,11.7-44.7,12.9v61.3h18.4c5.7,0,11.1,2.2,15.1,6.3c4.1,4.1,6.4,9.7,6.4,15.6l-0.1,36.9
			C432.7,471.3,425.4,478.7,416.4,478.7z"/>
	</g>
</g>
<g id="Layer_15" class="st0">
</g>
<g id="Layer_12" class="st0">
</g>
<g id="Layer_13">
	<g>
		<path class="st1" d="M395.8,135.5"/>
	</g>
	<g>
		<path d="M497.3,243.5l-16-0.9c1.3-24.7-3.7-45.2-15.3-62.7c-15.9-21.7-38.7-35.6-64.8-39.7c-0.8,0.1-1.7,0.2-2.7,0.1
			c-2.1-0.1-3.9-0.4-5.3-1c-3.3-1.4-5.4-4.4-5.4-7.8v-8.8l8.8,0.8c33.3,3.2,62.6,19.9,82.5,47.1l0.2,0.3
			C493,191.5,498.9,215.2,497.3,243.5z M396.5,125.3c-2,1.1-3.8,3.2-4.1,6.2c-0.3,2.9,1.1,5.3,2.7,6.8L396.5,125.3z"/>
	</g>
	<g>
		<path d="M79.9,243.2l-17-0.1c0.2-35.6,0.2-71.8,0-107.5l17-0.1C80.1,171.3,80.1,207.5,79.9,243.2z"/>
	</g>
</g>
<g id="Layer_14">
	<g>
		<path class="st1" d="M221.8,131.5"/>
	</g>
	<g>
		<path d="M377.6,140l0-95.2c0-8.6-7-15.6-15.6-15.6H157.1l-77.1,77c-0.1,0.1-0.2,0.3-0.2,0.5v29.2h-17v-29.2
			c0-4.7,1.8-9.2,5.2-12.5l77.9-77.8c2.7-2.7,6.3-4.2,10.1-4.2h206c18,0,32.6,14.6,32.6,32.6l0,95.2L377.6,140z"/>
	</g>
</g>
<g id="Layer_11">
	<g>
		<circle class="st2" cx="221.7" cy="468.4" r="26.8"/>
		<path d="M221.7,503.2c-19.2,0-34.8-15.6-34.8-34.8c0-19.2,15.6-34.8,34.8-34.8s34.8,15.6,34.8,34.8
			C256.5,487.6,240.9,503.2,221.7,503.2z M221.7,449.6c-10.4,0-18.8,8.4-18.8,18.8c0,10.4,8.4,18.8,18.8,18.8s18.8-8.4,18.8-18.8
			C240.5,458,232,449.6,221.7,449.6z"/>
	</g>
	<g>
		<circle class="st2" cx="360" cy="468.4" r="26.8"/>
		<path d="M360,503.2c-19.2,0-34.8-15.6-34.8-34.8c0-19.2,15.6-34.8,34.8-34.8c19.2,0,34.8,15.6,34.8,34.8
			C394.8,487.6,379.2,503.2,360,503.2z M360,449.6c-10.4,0-18.8,8.4-18.8,18.8c0,10.4,8.4,18.8,18.8,18.8c10.4,0,18.8-8.4,18.8-18.8
			C378.8,458,370.4,449.6,360,449.6z"/>
	</g>
	<g>
	</g>
	<g>
	</g>
</g>
</svg>
