<?xml version="1.0" encoding="utf-8"?>
<!-- Generator: Adobe Illustrator 23.0.5, SVG Export Plug-In . SVG Version: 6.00 Build 0)  -->
<svg version="1.1" xmlns="http://www.w3.org/2000/svg" xmlns:xlink="http://www.w3.org/1999/xlink" x="0px" y="0px"
	 viewBox="0 0 512 512" style="enable-background:new 0 0 512 512;" xml:space="preserve">
<style type="text/css">
	.st0{display:none;}
	.st1{display:inline;}
	.st2{display:inline;fill:#7FFF86;}
</style>
<g id="Layer_1" class="st0">
	<path class="st1" d="M216.3,224.5c0,0-17.7-0.1-35.7,8.9c-17.9,9-36.4,28.5-36.4,63.3v128.2c0,2.1,0.9,4.1,2.4,5.6
		c1.5,1.5,3.5,2.3,5.6,2.4h112.4c2.1,0,4.1-0.9,5.6-2.4c1.5-1.5,2.3-3.5,2.4-5.6c0-1.1-0.2-2.1-0.6-3.1c-0.4-1-1-1.9-1.7-2.6
		c-0.7-0.7-1.6-1.3-2.6-1.8c-1-0.4-2-0.6-3.1-0.6H160.4V296.5c0-29.4,13.5-41.8,27.6-49.1c14.1-7.1,28.4-7.1,28.4-7.1h80.3
		c0,0,14.3,0.1,28.4,7.1c14.1,7.1,27.6,19.5,27.6,49.1v120.3h-24.1c-1.1,0-2.1,0.2-3.1,0.6c-1,0.4-1.9,1-2.6,1.8
		c-0.7,0.7-1.3,1.6-1.7,2.6c-0.4,1-0.6,2-0.6,3.1c0,2.1,0.9,4.1,2.4,5.6c1.5,1.5,3.5,2.3,5.6,2.4h32.1c1.1,0,2.1-0.2,3.1-0.6
		c1-0.4,1.9-1,2.6-1.7c0.7-0.7,1.3-1.6,1.8-2.6c0.4-1,0.6-2,0.6-3.1V296.7c0-34.8-18.6-54.2-36.7-63.3c-17.9-9-35.7-8.9-35.7-8.9
		H216.3z"/>
	<path class="st1" d="M296.6,418.1c-1.1,0-2.1,0.2-3.1,0.6c-1,0.4-1.9,1-2.6,1.7c-0.7,0.7-1.3,1.6-1.7,2.6c-0.4,1-0.6,2-0.6,3.1
		c0,1.1,0.2,2.1,0.6,3.1c0.4,1,1,1.9,1.8,2.6c0.7,0.7,1.6,1.3,2.6,1.7c1,0.4,2,0.6,3.1,0.6c2.1,0,4.1-0.9,5.6-2.4
		c1.5-1.5,2.3-3.5,2.4-5.6c0-1.1-0.2-2.1-0.6-3.1c-0.4-1-1-1.9-1.7-2.6c-0.7-0.7-1.6-1.3-2.6-1.8
		C298.7,418.3,297.7,418.1,296.6,418.1z M208.1,321.1c-2,0.1-3.9,0.9-5.4,2.3c-0.7,0.7-1.3,1.6-1.7,2.6c-0.4,1-0.6,2-0.6,3.1
		c0,1.1,0.2,2.1,0.6,3.1c0.4,1,1,1.9,1.7,2.6l40,40c0.7,0.7,1.6,1.3,2.6,1.7c1,0.4,2,0.6,3.1,0.6c1.1,0,2.1-0.2,3.1-0.6
		c1-0.4,1.9-1,2.6-1.7c1.5-1.5,2.3-3.5,2.3-5.6c0-2.1-0.8-4.1-2.3-5.7l-40-40c-0.8-0.8-1.7-1.4-2.7-1.8
		C210.4,321.3,209.3,321.2,208.1,321.1L208.1,321.1z"/>
	<path class="st1" d="M303,296.6c-2,0.2-3.9,1.2-5.3,2.7l-56,64.2c-1.4,1.6-2.1,3.7-2,5.8c0.1,2.1,1.1,4.1,2.7,5.5
		c1.6,1.4,3.7,2.1,5.8,2c2.1-0.1,4.1-1.1,5.5-2.7l56-64.2c1.4-1.6,2.1-3.7,2-5.8c-0.1-2.1-1.1-4.1-2.7-5.5c-0.8-0.7-1.8-1.3-2.8-1.6
		C305.1,296.7,304,296.6,303,296.6L303,296.6z M256.6,80.3c-17,0.1-33.3,6.9-45.3,18.9c-12,12-18.8,28.3-18.9,45.3
		c0,35.4,28.8,64.2,64.2,64.2c35.4,0,64.2-28.8,64.2-64.2C320.8,109.1,292,80.3,256.6,80.3z M256.6,96.3c26.7,0,48.2,21.4,48.2,48.2
		c0,26.7-21.4,48.2-48.2,48.2c-26.7,0-48.2-21.4-48.2-48.2C208.4,118.5,229.5,96.3,256.6,96.3z M80.3,264.5c0,0-13.7-0.1-27.6,6.9
		c-13.9,7-28.4,22.6-28.4,49.4v80c0,4.4,3.6,8,8,8.1h120.3c2.1,0,4.2-0.8,5.7-2.4c1.5-1.5,2.4-3.6,2.4-5.7V296.5
		c0-7.8,1.1-14.4,2.8-20.1c0.3-1.1,0.4-2.2,0.3-3.3c-0.1-1.1-0.5-2.2-1-3.1c-0.6-1-1.3-1.8-2.2-2.4c-0.9-0.7-1.9-1.1-3-1.4
		c-4.2-1.1-5-1.8-13-1.8L80.3,264.5z M80.3,280.5h63.9c0,0,2,0.3,2.5,0.4c-1,5-2.2,9.8-2.2,15.7v96.3H40.3v-72.1
		c0-21.4,9.5-29.8,19.6-34.8c10.1-5,20.5-5.2,20.5-5.2L80.3,280.5z M112.1,152.4c-26.5,0-48.2,21.6-48.2,48.2
		c0,26.5,21.6,48.2,48.2,48.2c26.5,0,48.2-21.6,48.2-48.2C160.3,174.1,138.6,152.4,112.1,152.4z M112.1,168.4
		c17.8,0,32.1,14.3,32.1,32.1c0,17.8-14.3,32.1-32.1,32.1c-17.8,0-32.1-14.3-32.1-32.1C80,182.7,94.3,168.4,112.1,168.4z
		 M354.5,266.3c-1.1,0.2-2.1,0.7-3,1.4c-0.9,0.7-1.6,1.5-2.2,2.4c-0.6,1-0.9,2-1,3.1c-0.1,1.1,0,2.2,0.3,3.3
		c1.8,5.7,2.9,12.2,2.9,20.1v104.2c0,4.4,3.6,8,8,8.1h120.3c2.1,0,4.2-0.8,5.7-2.4c1.5-1.5,2.4-3.6,2.4-5.7v-80
		c0-26.7-14.5-42.4-28.5-49.4c-13.9-7-27.6-6.9-27.6-6.9h-64.2C359.5,264.5,358.6,265.4,354.5,266.3L354.5,266.3z M367.8,280.5h63.9
		c0,0,10.3,0.2,20.4,5.2c10.1,5.1,19.6,13.5,19.6,34.8v72.1H367.5v-96.3c0-5.9-1.3-10.6-2.3-15.7c0.5,0,2.6-0.4,2.6-0.4L367.8,280.5
		z M399.9,152.4c-26.5,0-48.2,21.6-48.2,48.2c0,26.5,21.6,48.2,48.2,48.2c26.5,0,48.2-21.6,48.2-48.2
		C448.1,174.1,426.4,152.4,399.9,152.4z M399.9,168.4c17.8,0,32.1,14.3,32.1,32.1c0,17.8-14.3,32.1-32.1,32.1
		c-17.8,0-32.1-14.3-32.1-32.1C367.8,182.7,382.1,168.4,399.9,168.4z"/>
	<path class="st1" d="M756.5,224.5c0,0-17.7-0.1-35.7,8.9c-17.9,9-36.4,28.5-36.4,63.3v128.2c0,2.1,0.9,4.1,2.4,5.6
		c1.5,1.5,3.5,2.3,5.6,2.4h112.4c2.1,0,4.1-0.9,5.6-2.4c1.5-1.5,2.3-3.5,2.4-5.6c0-1.1-0.2-2.1-0.6-3.1c-0.4-1-1-1.9-1.7-2.6
		c-0.7-0.7-1.6-1.3-2.6-1.8c-1-0.4-2-0.6-3.1-0.6H700.6V296.5c0-29.4,13.5-41.8,27.6-49.1c14.1-7.1,28.4-7.1,28.4-7.1H837
		c0,0,14.3,0.1,28.4,7.1c14.1,7.1,27.6,19.5,27.6,49.1v120.3H869c-1.1,0-2.1,0.2-3.1,0.6c-1,0.4-1.9,1-2.6,1.8
		c-0.7,0.7-1.3,1.6-1.7,2.6c-0.4,1-0.6,2-0.6,3.1c0,2.1,0.9,4.1,2.4,5.6c1.5,1.5,3.5,2.3,5.6,2.4h32.1c1.1,0,2.1-0.2,3.1-0.6
		c1-0.4,1.9-1,2.6-1.7c0.7-0.7,1.3-1.6,1.8-2.6c0.4-1,0.6-2,0.6-3.1V296.7c0-34.8-18.6-54.2-36.7-63.3c-17.9-9-35.7-8.9-35.7-8.9
		H756.5z"/>
	<path class="st1" d="M836.8,418.1c-1.1,0-2.1,0.2-3.1,0.6c-1,0.4-1.9,1-2.6,1.7c-0.7,0.7-1.3,1.6-1.7,2.6c-0.4,1-0.6,2-0.6,3.1
		c0,1.1,0.2,2.1,0.6,3.1c0.4,1,1,1.9,1.8,2.6c0.7,0.7,1.6,1.3,2.6,1.7c1,0.4,2,0.6,3.1,0.6c2.1,0,4.1-0.9,5.6-2.4
		c1.5-1.5,2.3-3.5,2.4-5.6c0-1.1-0.2-2.1-0.6-3.1c-0.4-1-1-1.9-1.7-2.6c-0.7-0.7-1.6-1.3-2.6-1.8
		C838.9,418.3,837.9,418.1,836.8,418.1z M748.4,321.1c-2,0.1-4,0.9-5.4,2.3c-0.7,0.7-1.3,1.6-1.7,2.6c-0.4,1-0.6,2-0.6,3.1
		c0,1.1,0.2,2.1,0.6,3.1c0.4,1,1,1.9,1.7,2.6l40,40c0.7,0.7,1.6,1.3,2.6,1.7c1,0.4,2,0.6,3.1,0.6s2.1-0.2,3.1-0.6
		c1-0.4,1.9-1,2.6-1.7c1.5-1.5,2.3-3.5,2.3-5.6c0-2.1-0.8-4.1-2.3-5.7l-40-40c-0.8-0.8-1.7-1.4-2.7-1.8
		C750.6,321.3,749.5,321.2,748.4,321.1L748.4,321.1z"/>
	<path class="st1" d="M843.2,296.6c-2,0.2-3.9,1.2-5.3,2.7l-56,64.2c-1.4,1.6-2.1,3.7-2,5.8c0.1,2.1,1.1,4.1,2.7,5.5
		c1.6,1.4,3.7,2.1,5.8,2c2.1-0.1,4.1-1.1,5.5-2.7l56-64.2c1.4-1.6,2.1-3.7,2-5.8c-0.1-2.1-1.1-4.1-2.7-5.5c-0.8-0.7-1.8-1.3-2.8-1.6
		C845.4,296.7,844.3,296.6,843.2,296.6L843.2,296.6z M796.8,80.3c-17,0.1-33.3,6.9-45.3,18.9c-12,12-18.8,28.3-18.9,45.3
		c0,35.4,28.8,64.2,64.2,64.2c35.4,0,64.2-28.8,64.2-64.2C861.1,109.1,832.2,80.3,796.8,80.3z M796.8,96.3
		c26.7,0,48.2,21.4,48.2,48.2c0,26.7-21.4,48.2-48.2,48.2c-26.7,0-48.2-21.4-48.2-48.2C748.7,118.5,769.7,96.3,796.8,96.3z
		 M620.5,280.5h63.9c0,0,2,0.3,2.5,0.4c-1,5-2.2,9.8-2.2,15.7v96.3H580.5v-72.1c0-21.4,9.5-29.8,19.6-34.8c10.1-5,20.5-5.2,20.5-5.2
		L620.5,280.5z M652.3,168.4c17.8,0,32.1,14.3,32.1,32.1c0,17.8-14.3,32.1-32.1,32.1c-17.8,0-32.1-14.3-32.1-32.1
		C620.2,182.7,634.5,168.4,652.3,168.4z M894.7,266.3c-1.1,0.2-2.1,0.7-3,1.4c-0.9,0.7-1.6,1.5-2.2,2.4c-0.6,1-0.9,2-1,3.1
		c-0.1,1.1,0,2.2,0.3,3.3c1.8,5.7,2.9,12.2,2.9,20.1v104.2c0,4.4,3.6,8,8,8.1H1020c2.1,0,4.2-0.8,5.7-2.4c1.5-1.5,2.4-3.6,2.4-5.7
		v-80c0-26.7-14.5-42.4-28.5-49.4c-13.9-7-27.6-6.9-27.6-6.9h-64.2C899.7,264.5,898.9,265.4,894.7,266.3L894.7,266.3z M908,280.5
		h63.9c0,0,10.3,0.2,20.4,5.2c10.1,5.1,19.6,13.5,19.6,34.8v72.1H907.7v-96.3c0-5.9-1.3-10.6-2.3-15.7c0.5,0,2.6-0.4,2.6-0.4
		L908,280.5z M940.1,152.4c-26.5,0-48.2,21.6-48.2,48.2c0,26.5,21.6,48.2,48.2,48.2c26.5,0,48.2-21.6,48.2-48.2
		C988.3,174.1,966.7,152.4,940.1,152.4z M940.1,168.4c17.8,0,32.1,14.3,32.1,32.1c0,17.8-14.3,32.1-32.1,32.1
		c-17.8,0-32.1-14.3-32.1-32.1C908,182.7,922.3,168.4,940.1,168.4z"/>
	<path class="st2" d="M796.8,96.3c26.7,0,48.2,21.4,48.2,48.2c0,26.7-21.4,48.2-48.2,48.2c-26.7,0-48.2-21.4-48.2-48.2
		C748.7,118.5,769.7,96.3,796.8,96.3z M620.2-28.3c-26.5,0-48.2,21.6-48.2,48.2c0,26.5,21.6,48.2,48.2,48.2
		c26.5,0,48.2-21.6,48.2-48.2C668.4-6.6,646.7-28.3,620.2-28.3z M652.3,168.4c17.8,0,32.1,14.3,32.1,32.1
		c0,17.8-14.3,32.1-32.1,32.1c-17.8,0-32.1-14.3-32.1-32.1C620.2,182.7,634.5,168.4,652.3,168.4z M894.7,266.3
		c-1.1,0.2-2.1,0.7-3,1.4c-0.9,0.7-1.6,1.5-2.2,2.4c-0.6,1-0.9,2-1,3.1c-0.1,1.1,0,2.2,0.3,3.3c1.8,5.7,2.9,12.2,2.9,20.1v104.2
		c0,4.4,3.6,8,8,8.1H1020c2.1,0,4.2-0.8,5.7-2.4c1.5-1.5,2.4-3.6,2.4-5.7v-80c0-26.7-14.5-42.4-28.5-49.4c-13.9-7-27.6-6.9-27.6-6.9
		h-64.2C899.7,264.5,898.9,265.4,894.7,266.3L894.7,266.3z M908,280.5h63.9c0,0,10.3,0.2,20.4,5.2c10.1,5.1,19.6,13.5,19.6,34.8
		v72.1H907.7v-96.3c0-5.9-1.3-10.6-2.3-15.7c0.5,0,2.6-0.4,2.6-0.4L908,280.5z M940.1,152.4c-26.5,0-48.2,21.6-48.2,48.2
		c0,26.5,21.6,48.2,48.2,48.2c26.5,0,48.2-21.6,48.2-48.2C988.3,174.1,966.7,152.4,940.1,152.4z M940.1,168.4
		c17.8,0,32.1,14.3,32.1,32.1c0,17.8-14.3,32.1-32.1,32.1c-17.8,0-32.1-14.3-32.1-32.1C908,182.7,922.3,168.4,940.1,168.4z"/>
</g>
<g id="Layer_8">
	<path d="M296.6,418.1c-1.1,0-2.1,0.2-3.1,0.6c-1,0.4-1.9,1-2.6,1.7c-0.7,0.7-1.3,1.6-1.7,2.6c-0.4,1-0.6,2-0.6,3.1
		c0,1.1,0.2,2.1,0.6,3.1c0.4,1,1,1.9,1.8,2.6c0.7,0.7,1.6,1.3,2.6,1.7c1,0.4,2,0.6,3.1,0.6c2.1,0,4.1-0.9,5.6-2.4
		c1.5-1.5,2.3-3.5,2.4-5.6c0-1.1-0.2-2.1-0.6-3.1c-0.4-1-1-1.9-1.7-2.6c-0.7-0.7-1.6-1.3-2.6-1.8
		C298.7,418.3,297.7,418.1,296.6,418.1z"/>
</g>
<g id="Layer_7">
	<path d="M214.1,323.5c-0.8-0.8-1.7-1.4-2.7-1.8c-1-0.4-2.1-0.6-3.2-0.5l-0.1-0.1c-2,0.1-3.9,0.9-5.4,2.3c-0.7,0.7-1.3,1.6-1.7,2.6
		c-0.4,1-0.6,2-0.6,3.1c0,1.1,0.2,2.1,0.6,3.1c0.4,1,1,1.9,1.7,2.6l40,40c0.7,0.7,1.6,1.3,2.6,1.7c1,0.4,2,0.6,3.1,0.6
		c1.1,0,2.1-0.2,3.1-0.6c1-0.4,1.9-1,2.6-1.7c1.5-1.5,2.3-3.5,2.3-5.6c0-2.1-0.8-4.1-2.3-5.7"/>
</g>
<g id="Layer_6">
</g>
<g id="Layer_5">
	<path d="M303,296.6c-2,0.2-3.9,1.2-5.3,2.7l-56,64.2c-1.4,1.6-2.1,3.7-2,5.8c0.1,2.1,1.1,4.1,2.7,5.5c1.6,1.4,3.7,2.1,5.8,2
		c2.1-0.1,4.1-1.1,5.5-2.7l56-64.2c1.4-1.6,2.1-3.7,2-5.8c-0.1-2.1-1.1-4.1-2.7-5.5c-0.8-0.7-1.8-1.3-2.8-1.6
		C305.1,296.7,304,296.6,303,296.6L303,296.6z"/>
</g>
<g id="Layer_4">
	<path d="M144.5,280.3c0.5,0,1,0,1.4,0c-0.9,5.1-1.4,10.4-1.4,16v96.3H40.2v-72c0-22,12.3-31.4,19.6-35.1c10-5,20.2-5.2,20.4-5.2h0
		L144.5,280.3 M144.5,264.3l-64.2,0c0,0,0,0,0,0c-0.7,0-14,0.1-27.6,6.9c-13.9,7-28.4,22.6-28.4,49.4v80c0,4.4,3.6,8,8,8.1h120.3
		c2.1,0,4.2-0.8,5.7-2.4c1.5-1.5,2.4-3.6,2.4-5.7V296.4c0-7.8,1.1-14.4,2.8-20.1c0.3-1.1,0.4-2.2,0.3-3.3c-0.1-1.1-0.5-2.2-1-3.1
		c-0.6-1-1.3-1.8-2.2-2.4c-0.9-0.7-1.9-1.1-3-1.4C153.2,265,152.5,264.3,144.5,264.3L144.5,264.3z"/>
	<path d="M368,280.3l64.2,0h0c0.4,0,10.5,0.2,20.5,5.2c7.3,3.7,19.6,13.1,19.6,35.1v72H367.9v-96.3c0-5.6-0.5-10.9-1.4-16
		C366.9,280.3,367.4,280.3,368,280.3 M368,264.3c-8,0-8.7,0.7-13,1.8c-1.1,0.2-2.1,0.7-3,1.4c-0.9,0.7-1.6,1.5-2.2,2.4
		c-0.6,1-0.9,2-1,3.1c-0.1,1.1,0,2.2,0.3,3.3c1.8,5.7,2.8,12.2,2.8,20.1v104.2c0,2.1,0.8,4.2,2.4,5.7c1.5,1.5,3.6,2.4,5.7,2.4h120.3
		c4.4,0,8-3.6,8-8.1v-80c0-26.8-14.5-42.4-28.4-49.4c-13.6-6.8-26.9-6.9-27.6-6.9c0,0,0,0,0,0L368,264.3L368,264.3z"/>
</g>
<g id="Layer_3">
	<path d="M296.3,224.5C296.3,224.5,296.2,224.5,296.3,224.5l-80.2,0c0,0,0,0,0,0c-0.7,0-18.1,0.1-35.7,8.9
		c-17.9,9-36.4,28.5-36.4,63.3v128.2c0,2.1,0.9,4.1,2.4,5.6c1.5,1.5,3.5,2.3,5.6,2.4h112.4c2.1,0,4.1-0.9,5.6-2.4
		c1.5-1.5,2.3-3.5,2.4-5.6c0-1.1-0.2-2.1-0.6-3.1c-0.4-1-1-1.9-1.7-2.6c-0.7-0.7-1.6-1.3-2.6-1.8c-1-0.4-2-0.6-3.1-0.6H160.1V296.5
		c0-29.4,13.5-41.8,27.6-49.1c14.1-7.1,28.4-7.1,28.4-7.1h80.3c0,0,14.3,0.1,28.4,7.1c14.1,7.1,27.6,19.5,27.6,49.1v120.3h-24.1
		c-1.1,0-2.1,0.2-3.1,0.6c-1,0.4-1.9,1-2.6,1.8c-0.7,0.7-1.3,1.6-1.7,2.6c-0.4,1-0.6,2-0.6,3.1c0,2.1,0.9,4.1,2.4,5.6
		c1.5,1.5,3.5,2.3,5.6,2.4h32.1c0,0,0,0,0,0c1,0,2.1-0.2,3-0.6c1-0.4,1.9-1,2.6-1.7c0.7-0.7,1.3-1.6,1.8-2.6c0.4-1,0.6-2,0.6-3.1
		V296.7c0-34.8-18.6-54.2-36.7-63.3C314.4,224.6,297,224.5,296.3,224.5L296.3,224.5z"/>
</g>
<g id="Layer_2">
	<path d="M256.3,96.3c26.4,0,47.9,21.7,47.9,48.2c0,26.5-21.5,48.2-47.9,48.2c-26.4,0-47.9-21.7-47.9-48.2
		C208.4,118,230,96.3,256.3,96.3 M256.3,79.3c-35.8,0-64.9,29.2-64.9,65.2c0,35.9,29.1,65.2,64.9,65.2c35.8,0,64.9-29.2,64.9-65.2
		C321.2,108.6,292.1,79.3,256.3,79.3L256.3,79.3z"/>
	<path d="M399.9,168.2c17.7,0,32.1,14.6,32.1,32.3c0,17.8-14.4,32.3-32.1,32.3c-17.7,0-32.1-14.6-32.1-32.3
		C367.8,182.8,382.3,168.2,399.9,168.2 M399.9,151.2c-27.1,0-49.1,22.1-49.1,49.3c0,27.2,22,49.3,49.1,49.3
		c27.1,0,49.1-22.1,49.1-49.3C449,173.4,427,151.2,399.9,151.2L399.9,151.2z"/>
	<path d="M112.1,168.2c17.7,0,32.1,14.6,32.1,32.3c0,17.8-14.4,32.3-32.1,32.3c-17.7,0-32.1-14.6-32.1-32.3
		C80,182.8,94.4,168.2,112.1,168.2 M112.1,151.2C85,151.2,63,173.4,63,200.6c0,27.2,22,49.3,49.1,49.3c27.1,0,49.1-22.1,49.1-49.3
		C161.2,173.4,139.2,151.2,112.1,151.2L112.1,151.2z"/>
</g>
</svg>
