<?xml version="1.0" encoding="utf-8"?>
<!-- Generator: Adobe Illustrator 23.0.5, SVG Export Plug-In . SVG Version: 6.00 Build 0)  -->
<svg version="1.1" xmlns="http://www.w3.org/2000/svg" xmlns:xlink="http://www.w3.org/1999/xlink" x="0px" y="0px"
	 viewBox="0 0 512 512" style="enable-background:new 0 0 512 512;" xml:space="preserve">
<style type="text/css">
	.st0{fill:none;stroke:#000000;stroke-width:14;stroke-linecap:round;stroke-miterlimit:10;}
</style>
<g id="Layer_1">
</g>
<g id="Layer_4">
	<g>
		<path d="M135.4,387.4c-1.4,0-2.9-0.4-4.1-1.3l-47.5-34.3c-3.5-2.6-6.3-5.9-8.3-9.8c-5.9-11.5-3.1-25.6,6.9-34.3l3.2-2.8
			c2.9-2.6,7.3-2.3,9.9,0.6c2.6,2.9,2.3,7.3-0.6,9.9l-3.2,2.8c-5.1,4.5-6.6,11.7-3.7,17.4c1,2,2.4,3.7,4.2,5l47.3,34.2
			c3.1,2.3,3.8,6.6,1.6,9.8C139.7,386.4,137.6,387.4,135.4,387.4z"/>
	</g>
	<g>
		<path d="M36.8,227.6c7.4,0,15.4,8.8,21.9,24l23.7,55.9l4.3,10.1l10.8-1.7c0.7-0.1,1.4-0.2,2.2-0.2c2.8,0,5.5,0.9,7.8,2.5
			l35.5,25.5l2,1.4l2.4,0.7c18.7,5.3,25.5,11.9,29,16.4c5.1,6.6,7.9,15.5,11,28.7c4.2,17.8,8.7,35.8,13.1,53.2l0,0.1l0.9,3.6
			l2.7,10.6h10.9h0.8c1.5,0,2.8,1.3,2.8,2.8l0,25c0,0.8-0.3,1.5-0.8,2c-0.5,0.5-1.2,0.8-2,0.8l-101.5,0c-1.5,0-2.8-1.3-2.8-2.8l0-25
			c0-0.8,0.3-1.5,0.8-2c0.5-0.5,1.2-0.8,2-0.8h4.6h17.7l-4.1-17.2l-2.2-9.3c-2.1-8.8-6.9-15.8-14.3-20.9l-41.1-28.3
			c-10.2-7-15.5-23.3-19.8-36.4l-0.1-0.3c-0.3-0.9-0.6-1.8-0.9-2.7l-30.2-91.6c-2.9-8.8,2.1-20.7,9.8-23.6
			C34.1,227.9,35.3,227.6,36.8,227.6 M36.8,213.6c-3.6,0-6.4,0.8-8.1,1.4c-14.8,5.6-23.5,25.1-18.2,41.1l30.2,91.6c0.3,1,0.6,2,1,3
			c4.9,15.1,11.1,33.9,25.2,43.6l41.1,28.3c4.6,3.2,7.3,7.1,8.6,12.6l2.2,9.3h-4.6c-4.5,0-8.8,1.7-11.9,4.9
			c-3.2,3.2-4.9,7.4-4.9,11.9l0,25c0,9.3,7.6,16.8,16.8,16.8l101.5,0c4.5,0,8.8-1.7,11.9-4.9c3.2-3.2,4.9-7.4,4.9-11.9l0-25
			c0-9.3-7.6-16.8-16.8-16.8h-0.8l-0.9-3.6c-4.4-17.4-8.9-35.4-13.1-53.1c-6.5-27.4-13.1-44.9-49.8-55.3l-35.5-25.5
			c-4.8-3.5-10.4-5.1-15.9-5.1c-1.5,0-2.9,0.1-4.4,0.3l-23.7-55.9C60.1,218.9,46,213.6,36.8,213.6L36.8,213.6z"/>
	</g>
	<line class="st0" x1="122.4" y1="451.3" x2="211.7" y2="451.3"/>
</g>
<g id="Layer_6">
	<g>
		<path d="M376.6,387.4c-2.2,0-4.3-1-5.7-2.9c-2.3-3.1-1.6-7.5,1.6-9.8l47.3-34.2c1.8-1.3,3.2-3,4.2-5c2.9-5.7,1.4-13-3.7-17.4
			l-3.2-2.8c-2.9-2.6-3.2-7-0.6-9.9c2.6-2.9,7-3.2,9.9-0.6l3.2,2.8c9.9,8.7,12.7,22.9,6.9,34.3c-2,3.9-4.8,7.2-8.3,9.8l-0.1,0.1
			l-47.4,34.3C379.4,387,378,387.4,376.6,387.4z"/>
	</g>
	<g>
		<path d="M475.2,227.6c1.6,0,2.7,0.4,3.1,0.5c7.8,2.9,12.7,14.8,9.8,23.6L458,343.2c-0.3,0.9-0.6,1.8-0.9,2.7l-0.1,0.3
			c-4.3,13.1-9.6,29.4-19.8,36.4l-41.1,28.3c-7.4,5.1-12.2,12.1-14.3,20.9l-2.2,9.3l-4.1,17.2h17.7h4.6c0.8,0,1.5,0.3,2,0.8
			c0.5,0.5,0.8,1.2,0.8,2l0,25c0,1.5-1.3,2.8-2.8,2.8l-101.5,0c-0.8,0-1.5-0.3-2-0.8c-0.5-0.5-0.8-1.2-0.8-2l0-25
			c0-1.5,1.3-2.8,2.8-2.8h0.8H308l2.7-10.6l0.9-3.6l0-0.1c4.4-17.4,8.9-35.4,13.1-53.2c3.1-13.2,5.9-22.1,11-28.7
			c3.5-4.5,10.3-11.1,29-16.4l2.4-0.7l2-1.4l35.5-25.5c2.3-1.6,5-2.5,7.8-2.5c0.7,0,1.4,0.1,2.2,0.2l10.8,1.7l4.3-10.1l23.7-55.9
			C459.8,236.3,467.7,227.6,475.2,227.6 M475.2,213.6c-9.2,0-23.2,5.3-34.8,32.6L416.7,302c-1.4-0.2-2.9-0.3-4.4-0.3
			c-5.5,0-11.1,1.7-15.9,5.1l-35.5,25.5c-36.8,10.4-43.4,27.9-49.8,55.3c-4.2,17.7-8.7,35.7-13.1,53.1l-0.9,3.6h-0.8
			c-9.3,0-16.8,7.5-16.8,16.8l0,25c0,4.5,1.7,8.8,4.9,11.9c3.2,3.2,7.4,4.9,11.9,4.9l101.5,0c9.3,0,16.8-7.5,16.8-16.8l0-25
			c0-4.5-1.7-8.8-4.9-11.9c-3.2-3.2-7.4-4.9-11.9-4.9h-4.6l2.2-9.3c1.3-5.4,4-9.4,8.6-12.6l41.1-28.3c14.1-9.7,20.2-28.5,25.2-43.6
			c0.3-1,0.6-2,1-3l30.2-91.6c5.3-15.9-3.4-35.5-18.2-41.1C481.6,214.4,478.7,213.6,475.2,213.6L475.2,213.6z"/>
	</g>
	<line class="st0" x1="389.6" y1="451.3" x2="300.3" y2="451.3"/>
</g>
<g id="Layer_3">
	<g>
		<path d="M273.2,80.4v41c0,1.9,0.7,3.6,2.1,5c1.3,1.3,3.1,2,4.9,2h41v34.5h-41c-1.9,0-3.6,0.7-4.9,2c-1.3,1.3-2.1,3.1-2.1,5v41
			h-34.5v-41c0-1.9-0.7-3.6-2.1-5c-1.3-1.3-3.1-2-4.9-2h-41v-34.5h41c1.9,0,3.6-0.7,4.9-2c1.3-1.3,2.1-3.1,2.1-5v-41H273.2
			 M287.2,66.4h-14h-34.5h-14v14v34h-34h-14v14v34.5v14h14h34v34v14h14h34.5h14v-14v-34h34h14v-14v-34.5v-14h-14h-34v-34V66.4
			L287.2,66.4z"/>
	</g>
</g>
<g id="Layer_2">
	<g>
		<path d="M291.7,23c20.1,14,50.5,30.6,86.8,35v106.8c0,39.7-22.8,71.7-42,91.5c-23.1,23.8-53,42.6-80.5,50.4
			c-27.5-7.8-57.4-26.5-80.5-50.4c-19.2-19.8-42-51.8-42-91.5V58c36.2-4.4,66.7-21,86.8-35H291.7 M293.9,9C293.9,9,293.9,9,293.9,9
			h-75.9c-1.5,0-2.9,0.5-4.1,1.3c-19.7,14.1-51,31.5-88,34.4c-1.8,0.1-3.4,0.9-4.6,2.2c-1.2,1.3-1.9,3-1.9,4.7v113.1
			c0,44.4,25,79.6,45.9,101.3c25.3,26.1,58.4,46.6,88.7,54.7c0.6,0.2,1.2,0.2,1.8,0.2s1.2-0.1,1.8-0.2c30.3-8.1,63.5-28.6,88.7-54.7
			c21-21.7,45.9-56.8,45.9-101.3V51.7c0-1.8-0.7-3.5-1.9-4.7c-1.2-1.3-2.8-2.1-4.6-2.2c-37-2.9-68.3-20.3-88-34.4
			C296.8,9.5,295.4,9,293.9,9L293.9,9z"/>
	</g>
</g>
<g id="Layer_5">
</g>
</svg>
