<?xml version="1.0" encoding="utf-8"?>
<!-- Generator: Adobe Illustrator 23.0.5, SVG Export Plug-In . SVG Version: 6.00 Build 0)  -->
<svg version="1.1" id="Layer_1" xmlns="http://www.w3.org/2000/svg" xmlns:xlink="http://www.w3.org/1999/xlink" x="0px" y="0px"
	 viewBox="0 0 512 512" style="enable-background:new 0 0 512 512;" xml:space="preserve">
<g>
	<path d="M341.1,137.5h-15.3c-3.7,0-6.7-3-6.7-6.7s3-6.7,6.7-6.7h8.7v-15.3c0-52.1-42.4-94.5-94.5-94.5h-5.1
		c-52.1,0-94.5,42.4-94.5,94.5v15.3h8.7c3.7,0,6.7,3,6.7,6.7s-3,6.7-6.7,6.7h-15.3c-3.7,0-6.7-3-6.7-6.7v-22
		c0-59.5,48.4-107.9,107.9-107.9h5.1c59.5,0,107.9,48.4,107.9,107.9v22C347.7,134.5,344.7,137.5,341.1,137.5z"/>
</g>
<g>
	<path d="M433.6,406.4c-2.6,0-5.1-1.6-6.2-4.2c-6.4-15.7-18.6-28.2-34.3-35.2l-69.8-30l-28-12l-5.4-2.2c-3.4-1.4-5-5.3-3.6-8.7
		c1.4-3.4,5.3-5,8.7-3.6l5.5,2.3l28.1,12l69.9,30c18.9,8.4,33.6,23.5,41.3,42.4c1.4,3.4-0.2,7.3-3.7,8.7
		C435.3,406.2,434.4,406.4,433.6,406.4z"/>
</g>
<g>
	<path d="M35.6,511.2c-3.7,0-6.7-3-6.7-6.7v-76.3c0-32,19-60.7,48.5-73.1l68.9-30l33.2-14.4c3.4-1.5,7.3,0.1,8.8,3.4
		s-0.1,7.3-3.4,8.8l-5.2,2.3l-28,12.1l-68.9,30c-24.6,10.3-40.4,34.2-40.4,60.8v76.3C42.3,508.2,39.3,511.2,35.6,511.2z"/>
</g>
<g>
	<path d="M291.2,330.9c-0.6,0-1.1-0.1-1.7-0.2c-3.6-0.9-5.7-4.6-4.7-8.1c0.7-2.5,1.1-4.7,1.3-6.6c0,0,0-0.1,0-0.1
		c0.2-1.9,0.3-3.7,0.3-5.7v-42.9c0-3.7,3-6.7,6.7-6.7s6.7,3,6.7,6.7v42.9c0,2.5-0.1,4.9-0.4,7.3c-0.3,2.6-0.8,5.4-1.6,8.5
		C296.9,329,294.2,330.9,291.2,330.9z"/>
</g>
<g>
	<path d="M183.6,330.9c-2.9,0-5.6-1.9-6.4-4.9c-0.9-3.1-1.4-5.8-1.7-8.4c-0.3-2.4-0.4-5-0.4-7.5v-42.8c0-3.7,3-6.7,6.7-6.7
		s6.7,3,6.7,6.7v42.8c0,2,0.1,4,0.4,6c0.2,2,0.6,3.9,1.3,6.3c1,3.5-1.1,7.2-4.6,8.2C184.8,330.9,184.2,330.9,183.6,330.9z"/>
</g>
<g>
	<path d="M343.1,190.7h-17.3c-3.7,0-6.7-3-6.7-6.7v-53.2c0-3.7,3-6.7,6.7-6.7h17.3c11,0,20,9,20,20v26.5
		C363.1,181.7,354.1,190.7,343.1,190.7z M332.4,177.3h10.7c3.7,0,6.7-3,6.7-6.7v-26.5c0-3.7-3-6.7-6.7-6.7h-10.7V177.3z"/>
</g>
<g>
	<path d="M148.9,190.7h-17.3c-11,0-20-9-20-20v-26.5c0-11,9-20,20-20h17.3c3.7,0,6.7,3,6.7,6.7V184
		C155.6,187.7,152.6,190.7,148.9,190.7z M131.6,137.5c-3.7,0-6.7,3-6.7,6.7v26.5c0,3.7,2.9,6.7,6.7,6.7h10.7v-39.9H131.6z"/>
</g>
<g>
	<path d="M116,511.2c-3.7,0-6.7-3-6.7-6.7v-51.6c0-3.7,3-6.7,6.7-6.7s6.7,3,6.7,6.7v51.6C122.7,508.2,119.7,511.2,116,511.2z"/>
</g>
<g>
	<path d="M237.3,293.7c-52.4,0-95.1-42.6-95.1-95.1v-67.7c0-0.1,0-0.1,0-0.2c0.2-6.7,1.9-19.5,11.3-30.6c9-10.7,20-14.1,24.2-15.4
		l0.1,0c0,0,0.1,0,0.1,0c15.9-4.6,26.5,0.3,36.8,5c8.4,3.8,16.3,7.5,28.2,6.9c9.3-0.5,15.6-3.3,21.2-6.1c3.3-1.6,7.3-0.3,8.9,3
		c1.6,3.3,0.3,7.3-3,8.9c-7.1,3.5-15.2,6.9-26.5,7.5c-15.1,0.8-25.4-3.9-34.4-8.1c-9.2-4.2-16.4-7.5-27.5-4.3l-0.1,0
		c-3.1,1-11.4,3.5-17.9,11.2c-6.7,8-8,17.4-8.2,22.3v67.6c0,45.1,36.7,81.7,81.7,81.7c45.1,0,81.7-36.7,81.7-81.7v-67.7
		c0-0.1,0-0.1,0-0.2c0.2-6.7-1.2-12.8-4.2-18.3c-6.2-11.2-17-15.2-20.1-16.2c-3.5-1.1-5.5-4.8-4.4-8.3c1.1-3.5,4.8-5.5,8.3-4.4
		c11.6,3.6,22,12,27.9,22.5c4.2,7.6,6.2,16,5.9,25.1v67.6C332.4,251.1,289.8,293.7,237.3,293.7z"/>
</g>
<g>
	<path d="M264.1,511.2c-3.1,0-5.9-2.2-6.5-5.4L237.3,401l-20.3,104.8c-0.7,3.6-4.2,6-7.8,5.3c-3.6-0.7-6-4.2-5.3-7.8l26.8-138.7
		c0.6-3.1,3.4-5.4,6.5-5.4s5.9,2.3,6.5,5.4l26.8,138.7c0.7,3.6-1.7,7.1-5.3,7.8C265,511.2,264.5,511.2,264.1,511.2z"/>
</g>
<g>
	<path d="M192.4,412.7c-0.3,0-0.7,0-1-0.1c-2-0.3-3.7-1.5-4.7-3.2L167.7,377c-1.9-3.2-0.8-7.3,2.4-9.1c3.2-1.9,7.3-0.8,9.1,2.4
		l14.8,25.3l32.7-29.3L175.8,327l-17.5,7.6l7.5,12.7c1.9,3.2,0.8,7.3-2.4,9.1c-3.2,1.9-7.3,0.8-9.1-2.4l-11.3-19.2
		c-1-1.6-1.2-3.6-0.6-5.5s1.9-3.3,3.7-4.1l28-12.1c2.2-1,4.8-0.6,6.7,0.8l60.4,46.5c1.6,1.2,2.5,3.1,2.6,5c0.1,2-0.7,3.9-2.2,5.2
		L196.8,411C195.6,412.1,194,412.7,192.4,412.7z"/>
</g>
<g>
	<path d="M282.1,412.5c-1.6,0-3.2-0.6-4.4-1.7l-44.8-40.1c-1.5-1.3-2.3-3.2-2.2-5.2c0.1-2,1-3.8,2.6-5l60.7-46.8
		c1.9-1.5,4.5-1.8,6.7-0.8l28,12c1.8,0.8,3.1,2.2,3.7,4c0.6,1.8,0.4,3.8-0.6,5.5l-43.9,74.9c-1,1.7-2.7,2.9-4.7,3.2
		C282.8,412.5,282.5,412.5,282.1,412.5z M247.8,366.1l32.8,29.3l35.9-61.4l-17.5-7.5L247.8,366.1z"/>
</g>
<g>
	<path d="M462.4,511.2H340c-11.4,0-20.7-9.3-20.7-20.7v-76.9c0-11.4,9.3-20.7,20.7-20.7h122.4c11.4,0,20.7,9.3,20.7,20.7v76.9
		C483.1,501.9,473.8,511.2,462.4,511.2z M340,406.3c-4,0-7.3,3.3-7.3,7.3v76.9c0,4,3.3,7.3,7.3,7.3h122.4c4,0,7.3-3.3,7.3-7.3v-76.9
		c0-4-3.3-7.3-7.3-7.3H340z"/>
</g>
<g>
	<path d="M447.3,484c-1.8,0-3.7-0.8-5-2.3L421.4,458c-2.4-2.8-2.2-7,0.6-9.4c2.8-2.4,7-2.2,9.4,0.6l20.9,23.7c2.4,2.8,2.2,7-0.6,9.4
		C450.5,483.5,448.9,484,447.3,484z"/>
</g>
<g>
	<path d="M420.4,484c-3.7,0-6.7-3-6.7-6.7v-49.7c0-3.7,3-6.7,6.7-6.7s6.7,3,6.7,6.7v49.7C427.1,481,424.1,484,420.4,484z"/>
</g>
<g>
	<path d="M433.7,460.1h-13.1c-3.7,0-6.7-3-6.7-6.7v-25.9c0-3.7,3-6.7,6.7-6.7h13.2c10.9,0,20.1,9,20.1,19.6S444.7,460.1,433.7,460.1
		z M427.3,446.8h6.4c3.7,0,6.9-2.9,6.9-6.3c0-3.3-3.2-6.3-6.8-6.3h-6.5V446.8z"/>
</g>
<g>
	<path d="M355.9,484c-3.7,0-6.7-3-6.7-6.7v-49.7c0-3.7,3-6.7,6.7-6.7s6.7,3,6.7,6.7v49.7C362.5,481,359.5,484,355.9,484z"/>
</g>
<g>
	<path d="M390.3,484c-3.7,0-6.7-3-6.7-6.7v-49.7c0-3.7,3-6.7,6.7-6.7s6.7,3,6.7,6.7v49.7C396.9,481,393.9,484,390.3,484z"/>
</g>
<g>
	<path d="M390.3,458.3h-34.4c-3.7,0-6.7-3-6.7-6.7s3-6.7,6.7-6.7h34.4c3.7,0,6.7,3,6.7,6.7S393.9,458.3,390.3,458.3z"/>
</g>
</svg>
