<?xml version="1.0" encoding="utf-8"?>
<!-- Generator: Adobe Illustrator 23.0.5, SVG Export Plug-In . SVG Version: 6.00 Build 0)  -->
<svg version="1.1" xmlns="http://www.w3.org/2000/svg" xmlns:xlink="http://www.w3.org/1999/xlink" x="0px" y="0px"
	 viewBox="0 0 512 512" style="enable-background:new 0 0 512 512;" xml:space="preserve">
<g id="Layer_1">
</g>
<g id="Layer_4">
	<g>
		<path d="M416.2,393.4H284.5c-4.1,0-7.5-3.4-7.5-7.5s3.4-7.5,7.5-7.5h131.8c4.1,0,7.5,3.4,7.5,7.5S420.4,393.4,416.2,393.4z"/>
	</g>
	<g>
		<path d="M424.9,334.7H275.7c-4.1,0-7.5-3.4-7.5-7.5s3.4-7.5,7.5-7.5h149.2c4.1,0,7.5,3.4,7.5,7.5S429.1,334.7,424.9,334.7z"/>
	</g>
	<g>
		<path d="M266.7,276.1c-4.1,0-7.5-3.4-7.5-7.5c0-4.1,3.3-7.5,7.5-7.5l170-0.2c0,0,0,0,0,0c4.1,0,7.5,3.4,7.5,7.5
			c0,4.1-3.3,7.5-7.5,7.5L266.7,276.1C266.7,276.1,266.7,276.1,266.7,276.1z"/>
	</g>
	<g>
		<path d="M386,217.4h-71.7c-4.1,0-7.5-3.4-7.5-7.5s3.4-7.5,7.5-7.5H386c4.1,0,7.5,3.4,7.5,7.5S390.1,217.4,386,217.4z"/>
	</g>
	<g>
		<path d="M432,158.7H264.9c-4.1,0-7.5-3.4-7.5-7.5s3.4-7.5,7.5-7.5H432c4.1,0,7.5,3.4,7.5,7.5S436.1,158.7,432,158.7z"/>
	</g>
</g>
<g id="Layer_3">
	<g>
		<path d="M127,157.8c-2,0-4-0.8-5.4-2.3L101,133.7c-2.9-3-2.7-7.8,0.3-10.6c3-2.9,7.8-2.7,10.6,0.3l20.6,21.7
			c2.9,3,2.7,7.8-0.3,10.6C130.8,157.1,128.9,157.8,127,157.8z"/>
	</g>
	<g>
		<path d="M128,157.3c-1.9,0-3.8-0.7-5.3-2.2c-2.9-2.9-2.9-7.7,0-10.6l41-41.2c2.9-2.9,7.7-2.9,10.6,0c2.9,2.9,2.9,7.7,0,10.6
			l-41,41.2C131.9,156.5,130,157.3,128,157.3z"/>
	</g>
</g>
<g id="Layer_2">
	<g>
		<path d="M462.5,469.1H241c-22.8,0-41.3-18.5-41.3-41.3v-234h15v234c0,14.5,11.8,26.3,26.3,26.3h221.6c14.5,0,26.3-11.8,26.3-26.3
			V109c0-14.5-11.8-26.3-26.3-26.3H260.3v-15h202.3c22.8,0,41.3,18.5,41.3,41.3v318.8C503.8,450.6,485.3,469.1,462.5,469.1z"/>
	</g>
	<g>
		<path d="M251.1,215.9h-24.7c-10.3,0-18.7-8.4-18.7-18.7V61.6c0-10.3,8.4-18.7,18.7-18.7h24.7c10.3,0,18.7,8.4,18.7,18.7v135.7
			C269.8,207.5,261.4,215.9,251.1,215.9z M226.4,57.9c-2,0-3.7,1.7-3.7,3.7v135.7c0,2,1.7,3.7,3.7,3.7h24.7c2,0,3.7-1.7,3.7-3.7
			V61.6c0-2-1.7-3.7-3.7-3.7H226.4z"/>
	</g>
	<g>
		<path d="M50.1,215.9H25.4c-10.3,0-18.7-8.4-18.7-18.7V61.6c0-10.3,8.4-18.7,18.7-18.7h24.7c10.3,0,18.7,8.4,18.7,18.7v135.7
			C68.8,207.5,60.4,215.9,50.1,215.9z M25.4,57.9c-2,0-3.7,1.7-3.7,3.7v135.7c0,2,1.7,3.7,3.7,3.7h24.7c2,0,3.7-1.7,3.7-3.7V61.6
			c0-2-1.7-3.7-3.7-3.7H25.4z"/>
	</g>
	<g>
		<path d="M138.7,465.9c-18.8,0-34.1-15.6-34.1-34.7V193h15v238.1c0,10.9,8.6,19.7,19.1,19.7s19.1-8.9,19.1-19.7V193h15v238.1
			C172.8,450.3,157.5,465.9,138.7,465.9z"/>
	</g>
	<g>
		<path d="M205.6,200.5H70.7c-9.4,0-17.1-7.7-17.1-17.1V75.8c0-9.4,7.7-17.1,17.1-17.1h134.9c9.4,0,17.1,7.7,17.1,17.1v107.7
			C222.7,192.8,215,200.5,205.6,200.5z M70.7,73.7c-1.1,0-2.1,0.9-2.1,2.1v107.7c0,1.1,0.9,2.1,2.1,2.1h134.9c1.1,0,2.1-0.9,2.1-2.1
			V75.8c0-1.1-0.9-2.1-2.1-2.1H70.7z"/>
	</g>
</g>
</svg>
