<?xml version="1.0" encoding="utf-8"?>
<!-- Generator: Adobe Illustrator 23.0.5, SVG Export Plug-In . SVG Version: 6.00 Build 0)  -->
<svg version="1.1" xmlns="http://www.w3.org/2000/svg" xmlns:xlink="http://www.w3.org/1999/xlink" x="0px" y="0px"
	 viewBox="0 0 512 512" style="enable-background:new 0 0 512 512;" xml:space="preserve">
<g id="Layer_1">
	<g>
		<path d="M264.5,17c18.2,0,35.4,7.1,48.3,20c12.9,12.9,20,30.1,20,48.3v34.1c0,1.8-0.6,3.5-1.6,5c-1,1.4-2.5,2.5-4.1,3.1
			c-6.6,2.3-11.1,8.3-11.7,15.2c-0.7,9.8-3.9,19.4-9.2,27.6c-5.1,8-12.2,14.7-20.4,19.4c-6.6,3.8-10,11.3-8.5,18.8
			c1.6,7.5,7.7,13,15.3,13.8c18.5,1.9,36.1,8.9,51,20.2c15.1,11.5,26.7,27,33.5,44.7c2.6,6.7,9.1,11.3,16.3,11.3h101.5c0,0,0,0,0,0
			c0,0.1,0,0.2,0,0.5l0,127.6c0,0,0,0,0,0c-0.1,0-0.2,0-0.4,0l-105.9,0c-1.9,0-3.7-0.7-5.2-1.8c-1.5-1.1-2.5-2.7-3-4.4
			c-2.1-7.5-9-12.7-16.8-12.7c-2.1,0-4.2,0.4-6.1,1.1c-4.4,1.7-9.1,3.3-13.9,4.9c-5.4,1.8-9.6,6-11.3,11.5c-0.6,1.9-1.7,3.7-3.3,5
			c-1.9,1.5-4.3,2.3-6.8,2.3c-0.2,0-0.5,0-0.7,0l-0.6,0h-0.6c-8.7,0-16.1,6.5-17.3,15.1c-0.4,2.8-1.8,5.2-4,7
			c-1.9,1.5-4.3,2.4-6.7,2.4c-0.4,0-0.7,0-1.1-0.1c-0.4,0-0.8-0.1-1.2-0.2l-16.4-3.1l-3.4,16.3c-0.4,2.1-1.6,4-3.3,5.4l0,0l0,0
			c-1.4,1.2-3.1,1.9-4.9,2.3c-0.6,0.1-1.3,0.2-1.9,0.2c-1.1,0-2.2-0.2-3.3-0.5c-1.7-0.5-3.5-0.8-5.3-0.8c-7.4,0-14,4.7-16.5,11.6
			c-0.6,1.8-1.7,3.3-3.2,4.5c-1.9,1.6-4.4,2.4-6.9,2.4c-0.4,0-0.7,0-1.1-0.1c-2.8-0.3-5.4-1.6-7.3-3.8l-2.7-3.4
			c-20.8-26.1-44.4-55.6-80.6-69.6c-2-0.8-4.1-1.2-6.3-1.2c-5.3,0-10.3,2.4-13.7,6.6c-0.8,1-1.8,1.8-2.9,2.3
			c-1.2,0.6-2.5,0.9-3.8,0.9l-89,0c-0.2,0-0.3,0-0.4,0c0,0,0,0,0,0v-128c0,0,0,0,0,0c0.1,0,0.2,0,0.5,0l101.1,0
			c7.2,0,13.8-4.5,16.4-11.3c6.8-17.8,18.3-33.2,33.4-44.7c14.8-11.3,32.4-18.2,50.9-20.2c7.6-0.8,13.7-6.3,15.3-13.8
			c1.6-7.5-1.8-15-8.5-18.8c-8.2-4.7-15.3-11.4-20.4-19.4c-5.3-8.3-8.5-17.8-9.2-27.6c-0.5-6.9-5.1-12.9-11.7-15.2
			c-1.7-0.6-3.1-1.7-4.1-3.1c-1.1-1.5-1.6-3.2-1.6-5V85.4c0-18.2,7.1-35.4,20-48.3c12.9-12.9,30.1-20,48.3-20H264.5 M264.5,0h-17.1
			c-22.6,0-44.3,9-60.3,25c-16,16-25,37.7-25,60.3v34.1c0,5.4,1.7,10.6,4.8,14.9c3.1,4.3,7.4,7.5,12.3,9.2c0.2,0.1,0.3,0.2,0.3,0.4
			c0.9,12.7,5,24.9,11.9,35.6c6.6,10.3,15.7,18.9,26.3,25c0.4,0.2,0.3,0.9-0.2,0.9c-21.6,2.3-42.2,10.4-59.5,23.6
			c-17.6,13.4-31.2,31.5-39,52.2c-0.1,0.2-0.3,0.3-0.5,0.3l-101.1,0c-2.6,0-5.3,0.5-7.7,1.6c-6.2,2.9-9.8,9-9.8,15.5v128
			c0,6.4,3.6,12.5,9.8,15.4c2.4,1.1,5,1.6,7.7,1.6l89,0c3.9,0,7.7-0.9,11.2-2.6c3.4-1.7,6.4-4,8.7-7c0.1-0.1,0.2-0.2,0.4-0.2
			c0.1,0,0.1,0,0.2,0c31.5,12.1,52.9,38.5,73.4,64.3l2.8,3.5c4.7,5.7,11.4,9.3,18.8,10c0.9,0.1,1.9,0.1,2.8,0.1
			c6.4,0,12.6-2.2,17.6-6.2c3.9-3.2,6.9-7.3,8.6-12.1c0.1-0.2,0.3-0.3,0.5-0.3c0.1,0,0.1,0,0.2,0c2.7,0.9,5.6,1.3,8.4,1.3
			c1.7,0,3.3-0.1,5-0.4c4.6-0.8,9-2.8,12.6-5.8c4.8-3.8,8.1-9.2,9.3-15.1c0.9,0.2,1.7,0.3,2.6,0.4c1,0.1,1.9,0.1,2.9,0.1
			c6.3,0,12.4-2.1,17.3-6.1c5.6-4.4,9.2-10.8,10.2-17.9c0-0.2,0.2-0.4,0.5-0.4c0,0,0,0,0,0c0.6,0,1.2,0.1,1.8,0.1
			c6.4,0,12.5-2.2,17.5-6.2c4.2-3.4,7.2-8,8.8-13.1c0-0.2,0.2-0.3,0.3-0.3c5.1-1.7,10-3.4,14.6-5.1c0.1,0,0.1,0,0.2,0
			c0.2,0,0.4,0.1,0.5,0.4c1.5,5.2,4.6,9.9,8.9,13.2c4.5,3.5,9.9,5.4,15.6,5.4l106,0c2.6,0,5.3-0.5,7.7-1.6c6.1-2.9,9.8-9,9.8-15.4
			l0-127.6c0-2.6-0.5-5.3-1.6-7.7c-2.9-6.2-9-9.8-15.5-9.8H393.5c-0.2,0-0.4-0.1-0.5-0.3c-7.9-20.7-21.4-38.8-39.1-52.2
			c-17.3-13.2-37.9-21.3-59.5-23.6c-0.5-0.1-0.6-0.7-0.2-0.9c10.6-6.1,19.7-14.6,26.3-25c6.9-10.7,10.9-22.9,11.9-35.6
			c0-0.2,0.1-0.4,0.3-0.4c4.9-1.7,9.2-5,12.3-9.2c3.1-4.4,4.8-9.6,4.8-14.9V85.3c0-22.6-9-44.3-25-60.3C308.8,9,287.2,0,264.5,0
			L264.5,0z"/>
	</g>
</g>
<g id="Layer_2">
	<g>
		<path d="M257.4,248.7c-0.6,0-1.2,0-1.7,0c-27.5-1.1-34.2-26.2-33.9-39.3c0.1-4.7,4-8.4,8.7-8.3c4.7,0.1,8.4,4,8.3,8.7
			c0,0.2,0,6.2,2.5,11.9c2.9,6.6,7.7,9.8,15.1,10.1c5.7,0.2,9.9-1.2,12.9-4.2c5.5-5.7,6.1-16.4,5.9-19.7c-0.3-4.7,3.2-8.7,7.9-9.1
			c4.7-0.3,8.7,3.2,9,7.9c0.1,2.1,1,20.7-10.7,32.7C277.2,243.7,269.6,248.7,257.4,248.7z"/>
	</g>
</g>
<g id="Layer_7">
	<g>
		<path d="M124,435.1c-0.3,0-0.6,0-1-0.1c-4.7-0.5-8-4.7-7.5-9.4l13.2-116.4c0.3-2.7-1-5.3-3.3-6.7l-8.6-5.4
			c-4-2.5-5.2-7.7-2.7-11.7c2.5-4,7.7-5.2,11.7-2.7l8.6,5.4c7.8,4.9,12.1,13.7,11.2,22.9l-13.2,116.4
			C132,431.9,128.3,435.1,124,435.1z"/>
	</g>
</g>
<g id="Layer_9">
	<g>
		<path d="M372.6,434.1c-4.3,0-7.9-3.2-8.4-7.5L351,310.2c-1-9.3,3.3-18.1,11.1-23l8.6-5.4c4-2.5,9.2-1.3,11.7,2.7
			c2.5,4,1.3,9.2-2.7,11.7l-8.6,5.4c-2.3,1.5-3.6,4.1-3.3,6.8l13.2,116.3c0.5,4.7-2.8,8.9-7.5,9.4
			C373.3,434.1,372.9,434.1,372.6,434.1z"/>
	</g>
</g>
<g id="Layer_10">
	<g>
		<path d="M212.5,313.7c-1,0-2-0.2-2.9-0.6c-18.5-7.3-58.7-4.5-72.6-2.8c-4.5,0.5-8.6-2.8-9.2-7.4s2.7-8.9,7.2-9.4
			c2.2-0.3,54.4-6.5,80.4,3.8c4.3,1.7,6.4,6.6,4.8,11C219,311.6,215.9,313.7,212.5,313.7z"/>
	</g>
</g>
<g id="Layer_11">
</g>
<g id="Layer_12">
	<g>
		<path d="M342.1,423.8c-2,0-4.1-0.7-5.7-2.2l-81.8-74.5c-1.7-1.6-4.3-1.7-6-0.1l-0.3,0.3l-36.5,29.3c-8.7,7.6-21.6,7-29.6-1.4
			l-11.3-11.9c-4.1-4.3-6.2-9.9-6-15.8c0.2-5.9,2.6-11.4,7-15.4l48.2-44.9c6.1-5.7,15.1-7.3,22.8-4.1c57.5,23.9,109.3,12,109.8,11.8
			c4.6-1.1,9.1,1.7,10.2,6.3c1.1,4.6-1.7,9.1-6.3,10.2c-2.3,0.6-57.5,13.4-120.3-12.7c-1.6-0.7-3.4-0.3-4.7,0.9l-48.2,44.9
			c-1.3,1.2-1.5,2.7-1.5,3.5c0,0.8,0.1,2.3,1.3,3.6l11.3,11.9c1.7,1.8,4.4,1.9,6.2,0.3l0.3-0.3l36.5-29.3c8.4-7.3,20.7-7,28.8,0.6
			l81.6,74.3c3.5,3.2,3.7,8.5,0.6,12C346.7,422.8,344.4,423.8,342.1,423.8z"/>
	</g>
</g>
<g id="Layer_3">
	<g>
		<path d="M314.4,451.5c-2.4,0-4.8-1-6.5-3l-7.3-8.7c-3-3.6-2.6-9,1-12c3.6-3,9-2.6,12,1l7.3,8.7c3,3.6,2.6,9-1,12
			C318.3,450.9,316.3,451.5,314.4,451.5z"/>
	</g>
	<g>
		<path d="M282.3,472.9c-2.4,0-4.8-1-6.5-3l-7.3-8.7c-3-3.6-2.6-9,1-12c3.6-3,9-2.6,12,1l7.3,8.7c3,3.6,2.6,9-1,12
			C286.2,472.3,284.2,472.9,282.3,472.9z"/>
	</g>
	<g>
		<path d="M247.1,490.8c-2.4,0-4.8-1-6.5-3l-7.3-8.7c-3-3.6-2.6-9,1-12c3.6-3,9-2.6,12,1l7.3,8.7c3,3.6,2.6,9-1,12
			C251,490.2,249,490.8,247.1,490.8z"/>
	</g>
</g>
<g id="Layer_8">
</g>
<g id="Layer_6">
	<g>
		<path d="M171.3,133.6c-0.1,0-0.3,0-0.4,0c-4.7-0.2-8.3-4.2-8.1-8.9c0.5-9.8,5.3-26.3,19.9-29.6c1.8-13.6,11.6-22.3,26.6-23.7
			c21.2-2,37.4-13,39.4-16.1c2.4-4,7.6-5.3,11.7-2.9c4,2.4,5.3,7.6,2.9,11.7c-5.8,9.7-28.7,22.1-52.4,24.3
			c-7.7,0.7-11.2,4.1-11.5,10.8c-0.3,6.6-5.5,12-12.1,12.4c-6.4,0.5-7.5,13.8-7.5,13.9C179.6,130.1,175.8,133.6,171.3,133.6z"/>
	</g>
</g>
<g id="Layer_5">
	<g>
		<path d="M342.5,133.6c-4.5,0-8.2-3.5-8.5-8.1c0-0.2-1.2-13.5-7.5-13.9c-6.6-0.5-11.8-5.8-12.1-12.4c-0.3-6.8-3.8-10.1-11.5-10.8
			c-23.6-2.2-46.6-14.6-52.4-24.3c-2.4-4-1.1-9.2,2.9-11.7c4-2.4,9.2-1.1,11.7,2.9c2,3.1,18.1,14.1,39.4,16.1
			c15,1.4,24.8,10.2,26.6,23.7c14.6,3.2,19.4,19.7,19.9,29.6c0.2,4.7-3.4,8.7-8.1,8.9C342.8,133.6,342.7,133.6,342.5,133.6z"/>
	</g>
</g>
<g id="Layer_4">
	<g>
		<path d="M258.2,214.1c-23.4,0-41.6-10.6-42.8-11.3c-4-2.4-5.3-7.6-2.9-11.7c2.4-4,7.6-5.3,11.6-3c1.5,0.9,36.2,20.8,67-1.9
			c3.8-2.8,9.1-2,11.9,1.8c2.8,3.8,2,9.1-1.8,11.9C286.6,210.6,271.6,214.1,258.2,214.1z"/>
	</g>
</g>
</svg>
