<?xml version="1.0" encoding="utf-8"?>
<!-- Generator: Adobe Illustrator 23.0.5, SVG Export Plug-In . SVG Version: 6.00 Build 0)  -->
<svg version="1.1" xmlns="http://www.w3.org/2000/svg" xmlns:xlink="http://www.w3.org/1999/xlink" x="0px" y="0px"
	 viewBox="0 0 452 401" style="enable-background:new 0 0 452 401;" xml:space="preserve">
<style type="text/css">
	.st0{fill:none;stroke:#000000;stroke-width:14;stroke-linecap:round;stroke-miterlimit:10;}
</style>
<g id="Layer_1">
	<path d="M231.5,170.6c-0.9-0.2-1.9-0.2-2.9-0.1c-9.6-1.1-16.9-9.3-16.9-18.9c0-2.2-0.9-4.4-2.5-5.9c-1.6-1.6-3.7-2.5-5.9-2.5
		c-2.2,0-4.4,0.9-5.9,2.5s-2.5,3.7-2.5,5.9c0,16.2,10.8,30.3,26.4,34.6v8.4c0,2.2,0.9,4.4,2.5,5.9c1.6,1.6,3.7,2.5,5.9,2.5
		c2.2,0,4.4-0.9,5.9-2.5c1.6-1.6,2.5-3.7,2.5-5.9v-7.9c18-3.8,30.2-20.5,28.3-38.8c-1.9-18.3-17.3-32.2-35.7-32.2
		c-10.5,0-19.1-8.5-19.1-19.1c0-10.5,8.5-19.1,19.1-19.1s19.1,8.5,19.1,19.1c0,2.2,0.9,4.4,2.5,5.9c1.6,1.6,3.7,2.5,5.9,2.5
		c2.2,0,4.4-0.9,5.9-2.5c1.6-1.6,2.5-3.7,2.5-5.9c0-17-11.9-31.6-28.5-35.1v-7.6c0-2.2-0.9-4.4-2.5-5.9c-1.6-1.6-3.7-2.5-5.9-2.5
		c-2.2,0-4.4,0.9-5.9,2.5c-1.6,1.6-2.5,3.7-2.5,5.9v8.2c-17.3,4.7-28.5,21.6-26.1,39.4c2.4,17.8,17.6,31.1,35.5,31.1
		c10.4,0,18.9,8.3,19.1,18.7C250,161.6,241.9,170.3,231.5,170.6z"/>
	<path d="M109,124.8c0,67.3,54.5,121.8,121.8,121.8S352.6,192,352.6,124.8C352.6,57.5,298,3,230.8,3C163.6,3.1,109.1,57.6,109,124.8
		z M230.8,19.8c58,0,105,47,105,105c0,58-47,105-105,105s-105-47-105-105C125.9,66.8,172.8,19.9,230.8,19.8z"/>
</g>
<g id="Layer_2">
	<path class="st0" d="M329.1,297.4l67.1-34.2c8.6-4.4,18.5-6.1,28-4.5c7.8,1.3,15.9,4.8,19.6,13c0.9,2.1,0.3,4.5-1.6,5.8
		c-14.9,10.1-83.4,56.6-130.4,88.4c-28.9,19.6-64.9,25.9-98.8,17.4l-81-20.4C114,358.3,94.6,364,82.3,378c-0.4,0.4-0.7,0.8-1.1,1.3"
		/>
	<path class="st0" d="M81.2,268.8c0,0,34.8-38.3,109.5-5.1c13.1,5.9,27.6,8.1,41.9,6.8c19.7-1.8,47.7-2.8,67.1,2.6
		c32.8,9.2,28.7,42,28.7,42l-100.4,2.2"/>
	<path class="st0" d="M72.5,389.5H20.3c-4.8,0-8.6-3.9-8.6-8.6V248.3c0-4.8,3.9-8.6,8.6-8.6h52.3c4.8,0,8.6,3.9,8.6,8.6v132.6
		C81.2,385.7,77.3,389.5,72.5,389.5z"/>
</g>
<g id="Layer_3">
</g>
</svg>
