<?xml version="1.0" encoding="utf-8"?>
<!-- Generator: Adobe Illustrator 23.0.5, SVG Export Plug-In . SVG Version: 6.00 Build 0)  -->
<svg version="1.1" xmlns="http://www.w3.org/2000/svg" xmlns:xlink="http://www.w3.org/1999/xlink" x="0px" y="0px"
	 viewBox="0 0 531.6 537" style="enable-background:new 0 0 531.6 537;" xml:space="preserve">
<g id="Layer_1">
</g>
<g id="Layer_2">
</g>
<g id="Layer_4">
	<g>
		<rect x="340.3" y="333.2" transform="matrix(0.708 -0.7062 0.7062 0.708 -124.8921 381.3452)" width="116.8" height="17"/>
	</g>
	<g>
		<rect x="204.3" y="278.5" transform="matrix(1.723343e-03 -1 1 1.723343e-03 -24.5444 549.3371)" width="117.2" height="17"/>
	</g>
	<g>
		<rect x="119.7" y="284.8" transform="matrix(0.7031 -0.711 0.711 0.7031 -205.146 192.6962)" width="17" height="114.4"/>
	</g>
	<g>
		<path d="M263.5,526.9c-22.8,0-41.4-18.6-41.4-41.4c0-22.8,18.6-41.4,41.4-41.4c22.8,0,41.4,18.6,41.4,41.4
			C304.9,508.3,286.3,526.9,263.5,526.9z M263.5,461c-13.5,0-24.4,11-24.4,24.4c0,13.5,11,24.4,24.4,24.4c13.5,0,24.4-11,24.4-24.4
			C287.9,472,276.9,461,263.5,461z"/>
	</g>
	<g>
		<path d="M286,520.2l-9.2-14.3l153.1-98l-173,53.7l-5-16.2l189.6-58.8c7.1-2.1,14.3,1.2,17.4,7.9c3.1,6.7,1,14.3-5.1,18.4l-0.2,0.1
			L286,520.2z"/>
	</g>
	<g>
		<path d="M385.3,487.5c-1.2-21.6-6.2-34.1-6.2-34.2l17.6-7.3c0.3,0.6,6.2,15.3,7.6,40.4L385.3,487.5z"/>
	</g>
	<g>
		<rect x="385.2" y="473" width="133.7" height="19"/>
	</g>
	<g>
		<rect x="7.2" y="473.1" width="133.7" height="19"/>
	</g>
	<g>
		<path d="M140.8,477h-19c0-77.7,63.2-141,141-141c70.1,0,110.1,50.8,116.7,69.3l-17.9,6.4c-3.2-8.8-34.8-56.7-98.8-56.7
			C195.5,355,140.8,409.8,140.8,477z"/>
	</g>
	<g>
		<path d="M518.8,474.7h-19c0-130.6-106.2-236.8-236.8-236.8c-130.6,0-236.8,106.2-236.8,236.8h-19c0-68.3,26.6-132.6,74.9-180.9
			s112.6-74.9,180.9-74.9s132.6,26.6,180.9,74.9S518.8,406.4,518.8,474.7z"/>
	</g>
</g>
<g id="Layer_3">
	<g>
		<path d="M447,220.1c-3.4,0-6.8-0.8-9.9-2.6l-19.8-10.8c-0.5-0.3-1.1-0.3-1.5,0l-20.1,10.2c-7.1,3.6-15.4,2.8-21.7-1.9
			c-6.3-4.8-9.4-12.6-7.9-20.3l4.2-22.2c0.1-0.5-0.1-1.1-0.5-1.5l-15.9-16c-5.6-5.6-7.5-13.8-4.9-21.3c2.6-7.5,9-12.8,16.9-13.8
			l22.4-2.9c0.5-0.1,1-0.4,1.3-0.9l10.3-20c3.6-6.9,10.6-11.2,18.4-11.2c0.1,0,0.2,0,0.3,0c7.9,0.1,14.9,4.7,18.3,11.8l9.6,20.4
			c0.2,0.5,0.7,0.8,1.2,0.9l22.3,3.6c7.8,1.3,14.1,6.8,16.4,14.3c2.3,7.6,0.2,15.7-5.6,21.1l-16.4,15.5c-0.4,0.4-0.6,0.9-0.5,1.5
			l3.4,22.3c1.2,7.8-2.1,15.5-8.5,20.1C455.3,218.8,451.1,220.1,447,220.1z M416.5,187.5c3.4,0,6.8,0.8,9.9,2.5l19.8,10.8
			c0.2,0.1,0.9,0.5,1.7-0.1c0.8-0.6,0.7-1.4,0.7-1.6l-3.4-22.3c-1-6.7,1.3-13.5,6.2-18.2l16.4-15.5c0.2-0.2,0.7-0.7,0.4-1.7
			c-0.3-1-1.1-1.1-1.3-1.1l-22.3-3.6c-6.7-1.1-12.5-5.4-15.4-11.6l-9.6-20.4c-0.1-0.2-0.4-0.9-1.5-0.9c-1.1,0-1.4,0.7-1.5,0.9
			l-10.3,20c-3.1,6-9,10.2-15.7,11l-22.4,2.9c-0.3,0-1,0.1-1.4,1.1c-0.3,1,0.2,1.5,0.4,1.7l15.9,16c4.8,4.8,6.9,11.7,5.6,18.4
			l-4.2,22.2c0,0.3-0.2,1,0.6,1.6c0.8,0.6,1.5,0.3,1.7,0.2l20.1-10.2C410.1,188.2,413.3,187.5,416.5,187.5z"/>
	</g>
	<g>
		<path d="M292.4,151.7c-3.4,0-6.8-0.8-9.9-2.6l-19.8-10.8c-0.5-0.3-1.1-0.3-1.5,0L241,148.5c-7.1,3.6-15.4,2.8-21.7-1.9
			c-6.3-4.8-9.4-12.6-7.9-20.3l4.2-22.2c0.1-0.5-0.1-1.1-0.5-1.5l-15.9-16c-5.6-5.6-7.5-13.8-4.9-21.3c2.6-7.5,9-12.8,16.9-13.8
			l22.4-2.9c0.5-0.1,1-0.4,1.3-0.9l10.3-20c3.6-7,10.8-11.3,18.7-11.2c7.9,0.1,14.9,4.7,18.3,11.8l9.6,20.4c0.2,0.5,0.7,0.8,1.2,0.9
			l22.3,3.6c7.8,1.3,14.1,6.8,16.4,14.3c2.3,7.6,0.2,15.7-5.6,21.1l-16.4,15.5c-0.4,0.4-0.6,0.9-0.5,1.5l3.4,22.3
			c1.2,7.8-2.1,15.5-8.5,20.1C300.7,150.5,296.5,151.7,292.4,151.7z M291.6,132.5c0.2,0.1,0.9,0.5,1.7-0.1c0.8-0.6,0.7-1.4,0.7-1.6
			l-3.4-22.3c-1-6.7,1.3-13.5,6.2-18.2l16.4-15.5c0.2-0.2,0.7-0.7,0.4-1.7c-0.3-1-1.1-1.1-1.3-1.1l-22.3-3.6
			c-6.7-1.1-12.5-5.4-15.4-11.6l-9.6-20.4c-0.1-0.2-0.4-0.9-1.5-0.9c-1,0-1.4,0.7-1.5,0.9l-10.3,20c-3.1,6-9,10.2-15.7,11l-22.4,2.9
			c-0.3,0-1,0.1-1.4,1.1c-0.3,1,0.2,1.5,0.4,1.7l15.9,16c4.8,4.8,6.9,11.7,5.6,18.4l-4.2,22.2c0,0.3-0.2,1,0.6,1.6
			c0.8,0.6,1.5,0.3,1.7,0.2l20.1-10.2c6.1-3.1,13.3-3,19.2,0.3L291.6,132.5z"/>
	</g>
	<g>
		<path d="M138.8,220.1c-3.4,0-6.8-0.8-9.9-2.6l-19.8-10.8c-0.5-0.3-1.1-0.3-1.5,0l-20.1,10.2c-7.1,3.6-15.4,2.8-21.7-1.9
			c-6.3-4.8-9.4-12.6-7.9-20.3l4.2-22.2c0.1-0.5-0.1-1.1-0.5-1.5l-15.9-16c-5.6-5.6-7.5-13.8-4.9-21.3c2.6-7.5,9-12.8,16.9-13.8
			L80,117c0.5-0.1,1-0.4,1.3-0.9l10.3-20c3.6-7,10.8-11.4,18.7-11.2c7.9,0.1,14.9,4.7,18.3,11.8l9.6,20.4c0.2,0.5,0.7,0.8,1.2,0.9
			l22.3,3.6c7.8,1.3,14.1,6.8,16.4,14.3c2.3,7.6,0.2,15.7-5.6,21.1l-16.4,15.5c-0.4,0.4-0.6,0.9-0.5,1.5l3.4,22.3
			c1.2,7.8-2.1,15.5-8.5,20.1C147.1,218.8,142.9,220.1,138.8,220.1z M108.3,187.5c3.4,0,6.8,0.8,9.9,2.5l19.8,10.8
			c0.2,0.1,0.9,0.5,1.7-0.1c0.8-0.6,0.7-1.4,0.7-1.6l-3.4-22.3c-1-6.7,1.3-13.5,6.2-18.2l16.4-15.5c0.2-0.2,0.7-0.7,0.4-1.7
			s-1.1-1.1-1.3-1.1l-22.3-3.6c-6.7-1.1-12.5-5.4-15.4-11.6l-9.6-20.4c-0.1-0.2-0.4-0.9-1.5-0.9c-1,0-1.4,0.7-1.5,0.9l-10.3,20
			c-3.1,6-9,10.2-15.7,11l-22.4,2.9c-0.3,0-1,0.1-1.4,1.1c-0.3,1,0.2,1.5,0.4,1.7l15.9,16c4.8,4.8,6.9,11.7,5.6,18.4l-4.2,22.2
			c0,0.3-0.2,1,0.6,1.6s1.5,0.3,1.7,0.2L99,189.7C101.9,188.2,105.1,187.5,108.3,187.5z"/>
	</g>
</g>
</svg>
