<?xml version="1.0" encoding="utf-8"?>
<!-- Generator: Adobe Illustrator 23.0.5, SVG Export Plug-In . SVG Version: 6.00 Build 0)  -->
<svg version="1.1" xmlns="http://www.w3.org/2000/svg" xmlns:xlink="http://www.w3.org/1999/xlink" x="0px" y="0px"
	 viewBox="0 0 512 512" style="enable-background:new 0 0 512 512;" xml:space="preserve">
<g id="Layer_1">
</g>
<g id="Layer_2">
	<g>
		<path d="M471.7,510.3c-10,0-19.5-3.8-26.7-10.9l-0.1-0.1L319.3,373l14.9-14.8l125.6,126.3c3.3,3.2,7.6,4.9,12.2,4.8
			c4.6-0.1,8.9-2,12.1-5.3c6.5-6.8,6.4-17.3-0.2-24L356.3,331l14.9-14.8l127.7,129c14.7,14.8,14.9,38.2,0.5,53.2
			c-7.1,7.4-16.7,11.6-26.9,11.8C472.2,510.3,472,510.3,471.7,510.3z"/>
	</g>
	<g>
		<path d="M205.1,22.2c100.8,0,182.5,81.7,182.5,182.5s-81.7,182.5-182.5,182.5S22.6,305.6,22.6,204.7S104.3,22.2,205.1,22.2
			 M205.1,1.2c-27.5,0-54.1,5.4-79.2,16c-24.2,10.3-46,24.9-64.7,43.6c-18.7,18.7-33.4,40.5-43.6,64.7c-10.6,25.1-16,51.8-16,79.2
			s5.4,54.1,16,79.2c10.3,24.2,24.9,46,43.6,64.7c18.7,18.7,40.4,33.4,64.7,43.6c25.1,10.6,51.8,16,79.2,16s54.1-5.4,79.2-16
			c24.2-10.3,46-24.9,64.7-43.6c18.7-18.7,33.4-40.5,43.6-64.7c10.6-25.1,16-51.8,16-79.2s-5.4-54.1-16-79.2
			c-10.3-24.2-24.9-46-43.6-64.7c-18.7-18.7-40.5-33.4-64.7-43.6C259.2,6.6,232.6,1.2,205.1,1.2L205.1,1.2z"/>
	</g>
	<g>
		<path d="M205.3,219.5c31.5,0,58.3,19.9,68.6,47.9c1.3,3.7-1.4,7.6-5.3,7.6H142c-3.9,0-6.7-3.9-5.3-7.6
			C146.9,239.4,173.8,219.5,205.3,219.5 M205.3,198.5c-19.6,0-38.5,6-54.4,17.3c-15.6,11.1-27.3,26.4-33.9,44.3
			c-3,8.1-1.8,17.3,3.2,24.4c5,7.1,13.2,11.4,21.9,11.4h126.5c8.7,0,16.9-4.3,21.9-11.4c5-7.1,6.2-16.2,3.2-24.4
			c-6.6-17.9-18.3-33.2-33.9-44.3C243.7,204.5,224.9,198.5,205.3,198.5L205.3,198.5z"/>
	</g>
	<g>
		<path d="M205.3,113.8c22.6,0,40.8,18.3,40.8,40.8s-18.3,40.8-40.8,40.8s-40.8-18.3-40.8-40.8S182.7,113.8,205.3,113.8 M205.3,92.8
			c-34.1,0-61.8,27.7-61.8,61.8s27.7,61.8,61.8,61.8s61.8-27.7,61.8-61.8S239.4,92.8,205.3,92.8L205.3,92.8z"/>
	</g>
</g>
</svg>
