<?xml version="1.0" encoding="utf-8"?>
<!-- Generator: Adobe Illustrator 23.0.5, SVG Export Plug-In . SVG Version: 6.00 Build 0)  -->
<svg version="1.1" xmlns="http://www.w3.org/2000/svg" xmlns:xlink="http://www.w3.org/1999/xlink" x="0px" y="0px"
	 viewBox="0 0 537.7 536.3" style="enable-background:new 0 0 537.7 536.3;" xml:space="preserve">
<g id="Layer_1">
</g>
<g id="Layer_3">
	<g>
		<path d="M437.9,424.9c5.4,0,10.5,0.3,12.2,1c0.7,0.4,1.4,0.6,2.2,0.8c1.8,0.4,44.4,9.7,44.4,45.9v37.5H376.5l0.6-37.5
			c0-36.2,42.6-45.5,44.4-45.9c0.4-0.1,1.3-0.4,1.7-0.5C425.3,425.3,431.8,424.9,437.9,424.9 M437.9,407.9c-14.4,0-19,1.7-20.5,2.2
			l-0.1,0l-0.1,0c-3.8,0.9-15.7,4-27.7,11.6c-8.3,5.2-14.9,11.6-19.8,18.8c-6.3,9.4-9.6,20.1-9.6,31.8l-0.6,37.4l-0.3,17.3h17.3
			h120.2h17v-17v-37.5c0-11.7-3.2-22.4-9.6-31.9c-4.9-7.3-11.6-13.6-19.8-18.8c-11.6-7.3-23-10.5-27.2-11.5L456,410
			C454.4,409.3,450.5,407.9,437.9,407.9L437.9,407.9z"/>
	</g>
	<g>
		<path d="M266.8,424.9c5.4,0,10.5,0.3,12.2,1c0.7,0.4,1.4,0.6,2.2,0.8c1.8,0.4,44.4,9.7,44.4,45.9v37.5H205.4l0.6-37.5
			c0-36.2,42.6-45.5,44.4-45.9c0.4-0.1,1.3-0.4,1.7-0.5C254.3,425.3,260.7,424.9,266.8,424.9 M266.8,407.9c-14.4,0-19,1.7-20.5,2.2
			l-0.1,0l-0.1,0c-3.8,0.9-15.7,4-27.7,11.6c-8.3,5.2-14.9,11.6-19.8,18.8c-6.3,9.4-9.6,20.1-9.6,31.8l-0.6,37.4l-0.3,17.3h17.3
			h120.2h17v-17v-37.5c0-11.7-3.2-22.4-9.6-31.9c-4.9-7.3-11.6-13.6-19.8-18.8c-11.6-7.3-23-10.5-27.2-11.5l-1.1-0.4
			C283.3,409.3,279.5,407.9,266.8,407.9L266.8,407.9z"/>
	</g>
	<g>
		<path d="M95.2,425.3c5.4,0,10.5,0.3,12.2,1c0.7,0.4,1.4,0.6,2.2,0.8c1.8,0.4,44.4,9.7,44.4,45.9v37.5H33.8l0.6-37.5
			c0-36.2,42.6-45.5,44.4-45.9c0.4-0.1,1.3-0.4,1.7-0.5C82.7,425.7,89.1,425.3,95.2,425.3 M95.2,408.3c-14.4,0-19,1.7-20.5,2.2
			l-0.1,0l-0.1,0c-3.8,0.9-15.7,4-27.7,11.6c-8.3,5.2-14.9,11.6-19.8,18.8c-6.3,9.4-9.6,20.1-9.6,31.8l-0.6,37.4l-0.3,17.3h17.3
			h120.2h17v-17v-37.5c0-11.7-3.2-22.4-9.6-31.9c-4.9-7.3-11.6-13.6-19.8-18.8c-11.6-7.3-23-10.5-27.2-11.5l-1.1-0.4
			C111.7,409.7,107.9,408.3,95.2,408.3L95.2,408.3z"/>
	</g>
	<g>
		<path d="M94.6,326.3c14.8,0,26.8,12,26.8,26.8s-12,26.8-26.8,26.8s-26.8-12-26.8-26.8S79.8,326.3,94.6,326.3 M94.6,309.3
			c-24.1,0-43.8,19.6-43.8,43.8s19.6,43.8,43.8,43.8s43.8-19.6,43.8-43.8S118.7,309.3,94.6,309.3L94.6,309.3z"/>
	</g>
	<g>
		<path d="M114.5,45.2c16.5,0,29.9,13.4,29.9,29.9s-13.4,29.9-29.9,29.9S84.6,91.7,84.6,75.2S98,45.2,114.5,45.2 M114.5,28.2
			c-25.8,0-46.9,21.1-46.9,46.9s21,46.9,46.9,46.9s46.9-21.1,46.9-46.9S140.3,28.2,114.5,28.2L114.5,28.2z"/>
	</g>
	<g>
		<path d="M265.5,326.3c14.8,0,26.8,12,26.8,26.8s-12,26.8-26.8,26.8c-14.8,0-26.8-12-26.8-26.8S250.7,326.3,265.5,326.3
			 M265.5,309.3c-24.1,0-43.8,19.6-43.8,43.8s19.6,43.8,43.8,43.8c24.1,0,43.8-19.6,43.8-43.8S289.6,309.3,265.5,309.3L265.5,309.3z
			"/>
	</g>
	<g>
		<path d="M436.6,326.7c14.8,0,26.8,12,26.8,26.8s-12,26.8-26.8,26.8c-14.8,0-26.8-12-26.8-26.8S421.8,326.7,436.6,326.7
			 M436.6,309.7c-24.1,0-43.8,19.6-43.8,43.8s19.6,43.8,43.8,43.8c24.1,0,43.8-19.6,43.8-43.8S460.7,309.7,436.6,309.7L436.6,309.7z
			"/>
	</g>
	<g>
		<path d="M477.2,237.3H238.5v-17h232.9V31.7H195.8v148.5h-17V25.8c0-6.1,5-11.1,11.2-11.1h287.2c6.2,0,11.2,5,11.2,11.1v200.4
			C488.4,232.3,483.4,237.3,477.2,237.3z"/>
	</g>
	<g>
		<rect x="429.7" y="58.5" width="17" height="142.6"/>
	</g>
	<g>
		<rect x="385.4" y="122.2" width="17" height="78.8"/>
	</g>
	<g>
		<rect x="353.3" y="147.1" width="17" height="53.9"/>
	</g>
	<g>
		<rect x="319.9" y="116.9" width="17" height="84.1"/>
	</g>
	<g>
		<rect x="207.9" y="161.1" transform="matrix(0.555 -0.8318 0.8318 0.555 -27.2949 288.2669)" width="95.9" height="17"/>
	</g>
	<path d="M160.2,297H71.3c-1.1,0-2.2-0.2-3.2-0.6c-1-0.4-1.9-1-2.7-1.8c-0.8-0.8-1.4-1.7-1.8-2.7c-0.4-1-0.6-2.1-0.6-3.2v-12.6
		c-3.9,1.2-8,1.4-12,0.6c-10.9-2.2-18.8-12.2-18.8-23.6v-40c0-22.8,6.8-44.8,19.7-63.6c4.5-6.6,10.4-11.5,17.2-14.4
		c6.9-2.9,14.3-4.4,21.8-4.4h49.4c1.2,0,2.4,0,3.7,0.1c13.7,1.1,26.6,9.2,34.4,21.7L197,182l36.7,20c12.6,6.9,18.6,21.4,14.2,34.5
		c-2.5,7.6-7.9,13.6-15.1,16.9c-7.1,3.3-15.3,3.5-22.5,0.5c-0.3-0.1-0.6-0.3-0.9-0.4l-40.8-22.3l-0.2,57.5c0,2.2-0.9,4.3-2.4,5.8
		C164.5,296.1,162.4,297,160.2,297z M79.6,280.4H152l0.2-63.1l0-12.9c0-2.2,0.9-4.3,2.4-5.8c1.5-1.5,3.6-2.4,5.8-2.4h0
		c2.2,0,4.3,0.9,5.8,2.4c1.5,1.5,2.4,3.6,2.4,5.8v0l0,8l48.2,26.4c3,1.1,6.1,1,9-0.4c3-1.4,5.3-3.9,6.3-7.1c1.8-5.4-1-11.8-6.5-14.8
		l-38.6-21c-1.2-0.7-2.3-1.7-3-2.9l-19.7-31.3c-5.1-8.1-13.2-13.3-21.8-14c-0.8-0.1-1.6-0.1-2.3-0.1H91c-5.3,0-10.5,1.1-15.4,3.1
		c-3.8,1.6-7.3,4.5-10,8.5c-11,16-16.8,34.8-16.8,54.3v40c0,3.6,2.4,6.8,5.6,7.5c3,0.6,5.1-0.6,6.1-1.4c0.8-0.7,1.5-1.5,2-2.5
		c0.5-1,0.7-2,0.7-3.1v-54.9c0-4.6,3.7-8.3,8.3-8.3c4.6,0,8.3,3.7,8.3,8.3L79.6,280.4z"/>
</g>
<g id="Layer_2">
</g>
</svg>
